<svg width="1803" height="526" viewBox="0 0 1803 526" fill="none" xmlns="http://www.w3.org/2000/svg">
    <g clip-path="url(#clip0_127_114)">
        <rect width="1803" height="526" fill="white"/>
        <rect width="1803" height="530" fill="black"/>
        <rect width="1803" height="530" fill="url(#paint0_linear_127_114)"/>
        <path d="M593.305 279.414L624.208 211.743H642.051L599.661 296.681H587.708L593.305 279.414ZM584.793 211.743L594.705 280.814L594.996 296.681H583.685L568 211.743H584.793Z" fill="white"/>
        <path d="M661.992 233.561L651.088 296.681H635.987L646.948 233.561H661.992ZM648.814 217.344C648.775 214.894 649.572 212.91 651.205 211.393C652.876 209.838 654.917 209.04 657.327 209.002C659.621 208.963 661.603 209.663 663.275 211.102C664.985 212.502 665.84 214.407 665.84 216.819C665.879 219.23 665.063 221.194 663.391 222.711C661.72 224.227 659.698 225.005 657.327 225.044C655.034 225.083 653.051 224.402 651.38 223.002C649.708 221.602 648.853 219.716 648.814 217.344Z" fill="white"/>
        <path d="M688.463 247.912L680.009 296.681H664.907L675.869 233.561H689.979L688.463 247.912ZM683.624 262.846L679.484 262.904C679.95 259.132 680.845 255.418 682.166 251.762C683.488 248.067 685.276 244.742 687.53 241.787C689.824 238.831 692.603 236.497 695.868 234.786C699.134 233.075 702.924 232.258 707.238 232.336C710.698 232.453 713.555 233.172 715.81 234.495C718.103 235.817 719.872 237.586 721.116 239.803C722.359 241.981 723.156 244.489 723.506 247.329C723.895 250.168 723.914 253.123 723.565 256.196L716.859 296.681H701.699L708.521 256.021C708.754 253.843 708.677 251.898 708.288 250.187C707.938 248.476 707.141 247.134 705.897 246.162C704.653 245.151 702.826 244.626 700.416 244.587C697.851 244.509 695.596 244.995 693.653 246.045C691.709 247.095 690.057 248.515 688.697 250.304C687.336 252.093 686.248 254.096 685.431 256.312C684.615 258.49 684.013 260.668 683.624 262.846Z" fill="white"/>
        <path d="M731.961 289.389C731.922 286.939 732.738 284.897 734.41 283.264C736.081 281.63 738.141 280.814 740.59 280.814C742.961 280.775 744.963 281.514 746.596 283.03C748.267 284.508 749.123 286.453 749.162 288.864C749.2 291.353 748.365 293.395 746.654 294.989C744.983 296.584 742.942 297.381 740.532 297.381C738.2 297.42 736.178 296.701 734.468 295.223C732.797 293.745 731.961 291.8 731.961 289.389Z" fill="white"/>
        <path d="M778.665 247.154L770.152 296.681H765.546L776.391 233.561H780.881L778.665 247.154ZM775.575 260.279L773.826 257.537C774.681 254.348 775.944 251.257 777.616 248.262C779.287 245.267 781.308 242.584 783.68 240.211C786.09 237.8 788.811 235.895 791.843 234.495C794.875 233.094 798.179 232.394 801.755 232.394C805.292 232.394 808.188 233.017 810.443 234.261C812.736 235.506 814.485 237.217 815.69 239.395C816.895 241.573 817.634 244.062 817.906 246.862C818.178 249.662 818.081 252.618 817.615 255.729L810.618 296.681H806.011L813.067 255.729C813.572 252.384 813.611 249.254 813.183 246.337C812.756 243.42 811.57 241.067 809.626 239.278C807.722 237.489 804.826 236.614 800.939 236.653C797.712 236.653 794.719 237.334 791.959 238.695C789.238 240.056 786.77 241.884 784.554 244.178C782.377 246.434 780.512 248.962 778.957 251.762C777.441 254.562 776.313 257.401 775.575 260.279Z" fill="white"/>
        <path d="M869.1 285.072L874.639 252.462C875.184 249.079 874.911 246.22 873.823 243.887C872.735 241.514 871.005 239.725 868.634 238.52C866.301 237.275 863.483 236.634 860.179 236.595C857.147 236.595 854.173 237.159 851.258 238.286C848.343 239.375 845.797 240.989 843.62 243.128C841.443 245.228 839.985 247.815 839.247 250.887L834.699 250.829C835.204 247.873 836.292 245.248 837.964 242.953C839.635 240.659 841.676 238.734 844.086 237.178C846.496 235.622 849.101 234.436 851.899 233.619C854.698 232.803 857.516 232.394 860.354 232.394C864.436 232.394 867.992 233.211 871.024 234.845C874.095 236.439 876.369 238.734 877.846 241.728C879.362 244.723 879.809 248.34 879.187 252.579L873.881 283.73C873.531 285.753 873.279 287.814 873.123 289.914C872.968 291.975 873.084 294.017 873.473 296.039L873.415 296.681H868.459C868.264 294.737 868.245 292.792 868.4 290.847C868.556 288.903 868.789 286.978 869.1 285.072ZM874.698 260.863L874.231 264.888H859.596C856.992 264.927 854.232 265.199 851.316 265.704C848.44 266.171 845.66 266.988 842.978 268.155C840.335 269.282 838.061 270.858 836.156 272.88C834.291 274.863 833.066 277.372 832.483 280.405C832.055 283.05 832.366 285.364 833.416 287.347C834.465 289.292 836.02 290.809 838.081 291.897C840.141 292.948 842.415 293.492 844.902 293.531C848.79 293.57 852.405 292.889 855.748 291.489C859.13 290.05 862.142 288.067 864.785 285.539C867.468 283.011 869.683 280.055 871.432 276.672L872.948 280.114C871.705 282.836 870.091 285.305 868.109 287.522C866.126 289.7 863.872 291.567 861.345 293.123C858.857 294.639 856.195 295.825 853.357 296.681C850.519 297.498 847.585 297.887 844.553 297.848C841.171 297.809 838.139 297.089 835.457 295.689C832.775 294.289 830.714 292.286 829.276 289.681C827.877 287.075 827.41 284.003 827.877 280.464C828.421 276.769 829.723 273.677 831.783 271.188C833.882 268.699 836.448 266.696 839.48 265.179C842.512 263.663 845.738 262.574 849.159 261.913C852.619 261.213 855.923 260.863 859.071 260.863H874.698Z" fill="white"/>
        <path d="M908.749 291.664L939.127 233.619H944.084L910.848 296.681H906.942L908.749 291.664ZM897.787 233.503L910.265 291.956L910.498 296.681H906.825L893.123 233.503H897.787Z" fill="white"/>
        <path d="M961.459 233.561L950.614 296.681H946.008L956.911 233.561H961.459ZM958.835 214.368C958.913 213.396 959.341 212.521 960.118 211.743C960.934 210.966 961.848 210.577 962.859 210.577C963.947 210.577 964.822 210.966 965.482 211.743C966.182 212.521 966.474 213.435 966.357 214.485C966.24 215.457 965.774 216.313 964.958 217.052C964.141 217.791 963.228 218.18 962.217 218.219C961.168 218.219 960.293 217.849 959.593 217.11C958.933 216.332 958.68 215.419 958.835 214.368Z" fill="white"/>
        <path d="M1021.46 233.561H1025.95L1015.28 295.689C1014.46 300.512 1012.83 304.926 1010.38 308.932C1007.97 312.937 1004.82 316.127 1000.93 318.499C997.046 320.871 992.518 322.038 987.348 321.999C984.666 321.999 982.12 321.571 979.71 320.716C977.338 319.86 975.181 318.616 973.237 316.982C971.294 315.388 969.622 313.463 968.223 311.207L971.313 308.348C973.14 311.265 975.336 313.56 977.902 315.232C980.506 316.943 983.597 317.799 987.173 317.799C991.488 317.838 995.258 316.865 998.485 314.882C1001.75 312.899 1004.39 310.235 1006.41 306.89C1008.47 303.545 1009.85 299.851 1010.55 295.806L1018.95 247.329L1021.46 233.561ZM972.538 265.821L972.713 264.596C973.335 260.824 974.345 257.051 975.745 253.279C977.144 249.468 978.99 245.987 981.284 242.837C983.616 239.648 986.415 237.1 989.68 235.195C992.984 233.289 996.813 232.356 1001.17 232.394C1004.28 232.394 1007.09 232.997 1009.62 234.203C1012.19 235.408 1014.36 237.061 1016.15 239.161C1017.98 241.223 1019.34 243.614 1020.23 246.337C1021.17 249.059 1021.57 251.957 1021.46 255.029L1017.78 276.788C1017.08 279.861 1015.84 282.68 1014.05 285.247C1012.3 287.814 1010.18 290.05 1007.7 291.956C1005.25 293.823 1002.57 295.281 999.651 296.331C996.735 297.381 993.723 297.887 990.613 297.848C986.298 297.809 982.819 296.778 980.176 294.756C977.533 292.734 975.57 290.109 974.287 286.881C973.004 283.653 972.246 280.191 972.013 276.497C971.819 272.763 971.993 269.205 972.538 265.821ZM977.377 264.596L977.144 265.821C976.678 268.621 976.464 271.616 976.503 274.805C976.541 277.994 976.988 281.008 977.844 283.847C978.738 286.647 980.234 288.961 982.333 290.789C984.471 292.578 987.387 293.492 991.079 293.531C994.539 293.57 997.901 292.889 1001.17 291.489C1004.47 290.05 1007.35 288.047 1009.8 285.48C1012.28 282.875 1014.03 279.88 1015.04 276.497L1018.66 255.904C1018.85 253.259 1018.56 250.79 1017.78 248.495C1017.05 246.162 1015.9 244.12 1014.34 242.37C1012.83 240.581 1010.98 239.2 1008.8 238.228C1006.63 237.217 1004.22 236.711 1001.57 236.711C997.804 236.672 994.52 237.509 991.721 239.22C988.961 240.892 986.609 243.109 984.666 245.87C982.761 248.631 981.206 251.645 980.001 254.912C978.796 258.179 977.921 261.407 977.377 264.596Z" fill="white"/>
        <path d="M1073.76 285.072L1079.3 252.462C1079.84 249.079 1079.57 246.22 1078.48 243.887C1077.39 241.514 1075.66 239.725 1073.29 238.52C1070.96 237.275 1068.14 236.634 1064.84 236.595C1061.81 236.595 1058.83 237.159 1055.92 238.286C1053 239.375 1050.46 240.989 1048.28 243.128C1046.1 245.228 1044.64 247.815 1043.91 250.887L1039.36 250.829C1039.86 247.873 1040.95 245.248 1042.62 242.953C1044.29 240.659 1046.34 238.734 1048.75 237.178C1051.16 235.622 1053.76 234.436 1056.56 233.619C1059.36 232.803 1062.18 232.394 1065.01 232.394C1069.09 232.394 1072.65 233.211 1075.68 234.845C1078.75 236.439 1081.03 238.734 1082.51 241.728C1084.02 244.723 1084.47 248.34 1083.85 252.579L1078.54 283.73C1078.19 285.753 1077.94 287.814 1077.78 289.914C1077.63 291.975 1077.74 294.017 1078.13 296.039L1078.07 296.681H1073.12C1072.92 294.737 1072.9 292.792 1073.06 290.847C1073.22 288.903 1073.45 286.978 1073.76 285.072ZM1079.36 260.863L1078.89 264.888H1064.26C1061.65 264.927 1058.89 265.199 1055.98 265.704C1053.1 266.171 1050.32 266.988 1047.64 268.155C1044.99 269.282 1042.72 270.858 1040.82 272.88C1038.95 274.863 1037.73 277.372 1037.14 280.405C1036.71 283.05 1037.03 285.364 1038.08 287.347C1039.12 289.292 1040.68 290.809 1042.74 291.897C1044.8 292.948 1047.07 293.492 1049.56 293.531C1053.45 293.57 1057.06 292.889 1060.41 291.489C1063.79 290.05 1066.8 288.067 1069.44 285.539C1072.13 283.011 1074.34 280.055 1076.09 276.672L1077.61 280.114C1076.36 282.836 1074.75 285.305 1072.77 287.522C1070.79 289.7 1068.53 291.567 1066 293.123C1063.52 294.639 1060.85 295.825 1058.02 296.681C1055.18 297.498 1052.24 297.887 1049.21 297.848C1045.83 297.809 1042.8 297.089 1040.12 295.689C1037.43 294.289 1035.37 292.286 1033.94 289.681C1032.54 287.075 1032.07 284.003 1032.54 280.464C1033.08 276.769 1034.38 273.677 1036.44 271.188C1038.54 268.699 1041.11 266.696 1044.14 265.179C1047.17 263.663 1050.4 262.574 1053.82 261.913C1057.28 261.213 1060.58 260.863 1063.73 260.863H1079.36Z" fill="white"/>
        <path d="M1127.99 233.561L1127.34 237.761H1097.96L1098.66 233.561H1127.99ZM1112.83 216.877H1117.49L1106.35 281.514C1106.04 283.38 1105.93 285.228 1106 287.056C1106.12 288.883 1106.66 290.4 1107.64 291.606C1108.65 292.811 1110.32 293.434 1112.65 293.473C1113.7 293.473 1114.73 293.414 1115.74 293.298C1116.75 293.181 1117.76 293.064 1118.77 292.948L1118.71 297.089C1117.63 297.362 1116.52 297.556 1115.39 297.673C1114.3 297.789 1113.19 297.848 1112.07 297.848C1108.8 297.809 1106.35 297.012 1104.72 295.456C1103.13 293.9 1102.12 291.878 1101.69 289.389C1101.3 286.9 1101.34 284.255 1101.81 281.455L1112.83 216.877Z" fill="white"/>
        <path d="M1132.18 266.288L1132.48 264.071C1133.1 260.026 1134.26 256.118 1135.97 252.345C1137.68 248.534 1139.88 245.131 1142.56 242.137C1145.24 239.103 1148.39 236.711 1152.01 234.961C1155.62 233.211 1159.65 232.356 1164.08 232.394C1168.47 232.394 1172.2 233.308 1175.27 235.136C1178.38 236.964 1180.85 239.395 1182.68 242.428C1184.51 245.423 1185.73 248.806 1186.35 252.579C1187.01 256.312 1187.09 260.124 1186.58 264.013L1186.29 266.229C1185.67 270.274 1184.51 274.183 1182.79 277.955C1181.08 281.728 1178.89 285.13 1176.21 288.164C1173.52 291.159 1170.38 293.531 1166.76 295.281C1163.18 297.031 1159.18 297.887 1154.75 297.848C1150.36 297.848 1146.61 296.953 1143.5 295.164C1140.42 293.336 1137.98 290.906 1136.15 287.872C1134.32 284.839 1133.08 281.455 1132.42 277.722C1131.76 273.988 1131.68 270.177 1132.18 266.288ZM1137.14 264.071L1136.79 266.346C1136.32 269.496 1136.3 272.685 1136.73 275.913C1137.16 279.102 1138.07 282.039 1139.47 284.722C1140.91 287.367 1142.89 289.506 1145.42 291.139C1147.95 292.773 1151.06 293.589 1154.75 293.589C1158.52 293.628 1161.92 292.87 1164.95 291.314C1168.02 289.72 1170.71 287.619 1173 285.014C1175.29 282.369 1177.16 279.414 1178.6 276.147C1180.03 272.88 1181.05 269.574 1181.63 266.229L1181.98 264.013C1182.44 260.863 1182.44 257.693 1181.98 254.504C1181.55 251.276 1180.64 248.32 1179.24 245.637C1177.84 242.953 1175.88 240.795 1173.35 239.161C1170.82 237.489 1167.71 236.653 1164.02 236.653C1160.29 236.614 1156.89 237.392 1153.82 238.986C1150.78 240.542 1148.12 242.642 1145.83 245.287C1143.53 247.931 1141.65 250.887 1140.17 254.154C1138.69 257.421 1137.68 260.726 1137.14 264.071Z" fill="white"/>
        <path d="M1208.97 244.412L1200 296.681H1195.39L1206.23 233.561H1210.78L1208.97 244.412ZM1234.11 233.094L1233.29 237.236C1232.63 237.12 1231.97 237.042 1231.31 237.003C1230.65 236.925 1229.97 236.886 1229.27 236.886C1225.77 236.886 1222.66 237.606 1219.94 239.045C1217.25 240.484 1214.92 242.428 1212.94 244.878C1211 247.329 1209.36 250.031 1208.04 252.987C1206.76 255.943 1205.79 258.937 1205.13 261.971L1202.79 262.438C1203.42 258.899 1204.37 255.359 1205.65 251.82C1206.97 248.242 1208.7 244.976 1210.84 242.02C1213.02 239.064 1215.64 236.711 1218.71 234.961C1221.78 233.172 1225.4 232.297 1229.56 232.336C1230.33 232.336 1231.09 232.414 1231.83 232.569C1232.61 232.686 1233.37 232.861 1234.11 233.094Z" fill="white"/>
        <path d="M730.252 284.858L740.587 278.891L750.922 284.858L750.922 296.792L740.587 302.758L730.252 296.792L730.252 284.858Z" fill="white"/>
        <path fill-rule="evenodd" clip-rule="evenodd" d="M732.748 286.299L732.748 295.351L740.587 299.877L748.427 295.351L748.427 286.299L740.587 281.772L732.748 286.299ZM740.587 278.891L730.252 284.858L730.252 296.792L740.587 302.758L750.922 296.792L750.922 284.858L740.587 278.891Z" fill="#38688B"/>
        <path fill-rule="evenodd" clip-rule="evenodd" d="M734.12 287.423L734.12 294.789L740.499 298.472L746.877 294.789L746.877 287.423L740.499 283.741L734.12 287.423ZM740.499 281.396L732.089 286.251L732.089 295.961L740.499 300.816L748.908 295.961L748.908 286.251L740.499 281.396Z" fill="#38688B"/>
        <path fill-rule="evenodd" clip-rule="evenodd" d="M735.648 287.969L735.648 293.848L740.739 296.787L745.83 293.848L745.83 287.969L740.739 285.03L735.648 287.969ZM740.739 283.158L734.028 287.033L734.028 294.783L740.739 298.658L747.451 294.783L747.451 287.033L740.739 283.158Z" fill="#38688B"/>
        <path d="M-11.0002 574L-11.0002 -12.1934L78.303 -12.1934L78.303 224.948L158.276 224.948L158.276 -12.1934L247.579 -12.1934L247.579 574L158.276 574L158.276 301.553L78.303 301.553L78.303 574L-11.0002 574Z" fill="url(#paint1_linear_127_114)" fill-opacity="0.05"/>
        <path d="M366.206 574L366.206 65.0776L297.562 65.0776L297.562 -12.1934L521.154 -12.1934L521.154 65.0776L455.176 65.0776L455.176 574L366.206 574Z" fill="url(#paint2_linear_127_114)" fill-opacity="0.05"/>
        <path d="M602.126 574L602.126 65.0776L533.483 65.0776L533.483 -12.1934L757.074 -12.1934L757.074 65.0776L691.096 65.0776L691.096 574L602.126 574Z" fill="url(#paint3_linear_127_114)" fill-opacity="0.05"/>
        <path d="M807.39 574L807.39 -12.1934L942.012 -12.1934C965.337 -12.1934 984.664 -8.64068 999.992 -1.5353C1015.54 5.57007 1027.76 16.1171 1036.65 30.1058C1045.53 44.0945 1051.86 61.4139 1055.64 82.0639C1059.42 102.492 1061.3 126.139 1061.3 153.007L1061.3 165.33C1061.3 203.077 1057.97 235.273 1051.31 261.919C1044.87 288.342 1033.2 308.437 1016.32 322.203C999.437 335.97 975.667 342.853 945.011 342.853L896.694 342.853L896.694 574L807.39 574ZM896.694 269.246L927.35 269.246C940.457 269.246 950.231 265.915 956.673 259.254C963.116 252.593 967.336 241.602 969.336 226.281C971.557 210.738 972.668 190.088 972.668 164.331L972.668 153.007C972.446 121.254 969.669 97.2738 964.337 81.0647C959.006 64.6335 946.899 56.4179 928.016 56.4179L896.694 56.4179L896.694 269.246Z" fill="url(#paint4_linear_127_114)" fill-opacity="0.05"/>
        <circle cx="1203.09" cy="141.504" r="67.9126" fill="#D9D9D9" fill-opacity="0.03"/>
        <circle cx="1203.09" cy="434.6" r="67.9126" fill="#D9D9D9" fill-opacity="0.03"/>
        <path d="M215 367H1587.5" stroke="white"/>
    </g>
    <defs>
        <linearGradient id="paint0_linear_127_114" x1="42" y1="57.476" x2="1726.94" y2="444.477" gradientUnits="userSpaceOnUse">
            <stop offset="0.18426" stop-color="#041A26" stop-opacity="0"/>
            <stop offset="0.460654" stop-color="#031E2D" stop-opacity="0.9"/>
            <stop offset="0.782436" stop-color="#021C2B" stop-opacity="0.5"/>
        </linearGradient>
        <linearGradient id="paint1_linear_127_114" x1="1061.3" y1="280.903" x2="-11.0001" y2="280.903" gradientUnits="userSpaceOnUse">
            <stop stop-color="white" stop-opacity="0.6"/>
            <stop offset="1" stop-color="white"/>
        </linearGradient>
        <linearGradient id="paint2_linear_127_114" x1="1061.3" y1="280.903" x2="-11.0001" y2="280.903" gradientUnits="userSpaceOnUse">
            <stop stop-color="white" stop-opacity="0.6"/>
            <stop offset="1" stop-color="white"/>
        </linearGradient>
        <linearGradient id="paint3_linear_127_114" x1="1061.3" y1="280.903" x2="-11.0001" y2="280.903" gradientUnits="userSpaceOnUse">
            <stop stop-color="white" stop-opacity="0.6"/>
            <stop offset="1" stop-color="white"/>
        </linearGradient>
        <linearGradient id="paint4_linear_127_114" x1="1061.3" y1="280.903" x2="-11.0001" y2="280.903" gradientUnits="userSpaceOnUse">
            <stop stop-color="white" stop-opacity="0.6"/>
            <stop offset="1" stop-color="white"/>
        </linearGradient>
        <clipPath id="clip0_127_114">
            <rect width="1803" height="526" fill="white"/>
        </clipPath>
    </defs>
</svg>
